<svg id="Layer_1" data-name="Layer 1" xmlns="http://www.w3.org/2000/svg" viewBox="0 0 82.06 82.06"><defs><style>.cls-1{fill:#d6a887;}</style></defs><path class="cls-1" d="M70.71,20.31a36.06,36.06,0,0,0-9.89-10,37.6,37.6,0,0,0-13-5.56,36.09,36.09,0,0,0-14-.18A34.34,34.34,0,0,0,21,9.74a34.85,34.85,0,0,0-9.88,9.85,35.44,35.44,0,0,0-5.27,13,35.52,35.52,0,0,0,0,14.12,36.87,36.87,0,0,0,5.46,13A35.48,35.48,0,0,0,44.69,76c3.43-.33,3.41-2.76,3.41-4.45s-1.45-4.63-3.18-4.43a25.38,25.38,0,0,1-12-1.55A28.12,28.12,0,0,1,19.15,54.38,28.2,28.2,0,0,1,15,44.54a27.87,27.87,0,0,1-.14-10.7,26.13,26.13,0,0,1,3.72-9.63,24.9,24.9,0,0,1,16.65-11,25.58,25.58,0,0,1,10.3.33,27.47,27.47,0,0,1,9.69,4.31,28.58,28.58,0,0,1,7.47,7.71A27.9,27.9,0,0,1,67.6,42.68a25.41,25.41,0,0,1-3.33,11.5c-.91,1.6.69,4.52,1.79,5.06s4.47,1.88,6.1-1a35.68,35.68,0,0,0,4.61-14.34A35.22,35.22,0,0,0,70.71,20.31ZM43.82,36.23a4.67,4.67,0,1,0-7.76,5.2L59.24,76.05A4.67,4.67,0,0,0,67,70.86Z"/></svg>